<svg xmlns="http://www.w3.org/2000/svg" xmlns:xlink="http://www.w3.org/1999/xlink" width="500" zoomAndPan="magnify" viewBox="0 0 375 374.999991" height="500" preserveAspectRatio="xMidYMid meet" version="1.0"><defs><g/></defs><g fill="#000000" fill-opacity="1"><g transform="translate(88.998923, 239.428862)"><g><path d="M 141.015625 -168.640625 C 139.898438 -157.367188 139.34375 -147.207031 139.34375 -138.15625 C 139.34375 -130.21875 139.582031 -123.707031 140.0625 -118.625 L 134.578125 -118.625 C 133.304688 -130.851562 131.71875 -139.941406 129.8125 -145.890625 C 127.914062 -151.847656 124.582031 -156.21875 119.8125 -159 C 115.050781 -161.78125 107.75 -163.171875 97.90625 -163.171875 L 85.03125 -163.171875 L 85.03125 -27.625 C 85.03125 -20.957031 85.664062 -16.113281 86.9375 -13.09375 C 88.207031 -10.082031 90.429688 -8.019531 93.609375 -6.90625 C 96.785156 -5.789062 101.945312 -5.078125 109.09375 -4.765625 L 109.09375 0 C 100.832031 -0.476562 89.160156 -0.71875 74.078125 -0.71875 C 58.203125 -0.71875 46.453125 -0.476562 38.828125 0 L 38.828125 -4.765625 C 45.972656 -5.078125 51.132812 -5.789062 54.3125 -6.90625 C 57.488281 -8.019531 59.710938 -10.082031 60.984375 -13.09375 C 62.253906 -16.113281 62.890625 -20.957031 62.890625 -27.625 L 62.890625 -163.171875 L 50.015625 -163.171875 C 40.171875 -163.171875 32.867188 -161.78125 28.109375 -159 C 23.347656 -156.21875 20.015625 -151.847656 18.109375 -145.890625 C 16.203125 -139.941406 14.613281 -130.851562 13.34375 -118.625 L 7.859375 -118.625 C 8.335938 -123.707031 8.578125 -130.21875 8.578125 -138.15625 C 8.578125 -147.207031 8.019531 -157.367188 6.90625 -168.640625 C 20.082031 -168.171875 42.472656 -167.9375 74.078125 -167.9375 C 105.523438 -167.9375 127.835938 -168.171875 141.015625 -168.640625 Z M 141.015625 -168.640625 "/></g></g></g><g fill="#ffffff" fill-opacity="1"><g transform="translate(141.712452, 253.599935)"><g><path d="M 138.0625 -141.765625 C 133.25 -141.492188 129.675781 -140.773438 127.34375 -139.609375 C 125.007812 -138.441406 123.429688 -136.515625 122.609375 -133.828125 C 121.785156 -131.148438 121.375 -127.203125 121.375 -121.984375 L 121.375 1.03125 L 116.625 1.03125 L 30.078125 -132.703125 L 30.078125 -23.90625 C 30.078125 -18.539062 30.523438 -14.550781 31.421875 -11.9375 C 32.316406 -9.332031 34.066406 -7.445312 36.671875 -6.28125 C 39.285156 -5.113281 43.34375 -4.394531 48.84375 -4.125 L 48.84375 0 C 43.894531 -0.414062 36.882812 -0.625 27.8125 -0.625 C 19.570312 -0.625 13.1875 -0.414062 8.65625 0 L 8.65625 -4.125 C 13.457031 -4.394531 17.023438 -5.113281 19.359375 -6.28125 C 21.703125 -7.445312 23.285156 -9.367188 24.109375 -12.046875 C 24.929688 -14.734375 25.34375 -18.6875 25.34375 -23.90625 L 25.34375 -124.046875 C 25.34375 -129.265625 24.929688 -133.039062 24.109375 -135.375 C 23.285156 -137.71875 21.738281 -139.300781 19.46875 -140.125 C 17.207031 -140.945312 13.601562 -141.492188 8.65625 -141.765625 L 8.65625 -145.890625 C 13.1875 -145.484375 19.570312 -145.28125 27.8125 -145.28125 C 34 -145.28125 39.359375 -145.484375 43.890625 -145.890625 L 116.625 -33.796875 L 116.625 -121.984375 C 116.625 -127.347656 116.175781 -131.332031 115.28125 -133.9375 C 114.394531 -136.550781 112.644531 -138.441406 110.03125 -139.609375 C 107.425781 -140.773438 103.375 -141.492188 97.875 -141.765625 L 97.875 -145.890625 C 102.820312 -145.484375 109.828125 -145.28125 118.890625 -145.28125 C 127.140625 -145.28125 133.53125 -145.484375 138.0625 -145.890625 Z M 138.0625 -141.765625 "/></g></g></g><g fill="#000000" fill-opacity="1"><g transform="translate(135.288643, 253.150739)"><g><path d="M 138.0625 -141.765625 C 133.25 -141.492188 129.675781 -140.773438 127.34375 -139.609375 C 125.007812 -138.441406 123.429688 -136.515625 122.609375 -133.828125 C 121.785156 -131.148438 121.375 -127.203125 121.375 -121.984375 L 121.375 1.03125 L 116.625 1.03125 L 30.078125 -132.703125 L 30.078125 -23.90625 C 30.078125 -18.539062 30.523438 -14.550781 31.421875 -11.9375 C 32.316406 -9.332031 34.066406 -7.445312 36.671875 -6.28125 C 39.285156 -5.113281 43.34375 -4.394531 48.84375 -4.125 L 48.84375 0 C 43.894531 -0.414062 36.882812 -0.625 27.8125 -0.625 C 19.570312 -0.625 13.1875 -0.414062 8.65625 0 L 8.65625 -4.125 C 13.457031 -4.394531 17.023438 -5.113281 19.359375 -6.28125 C 21.703125 -7.445312 23.285156 -9.367188 24.109375 -12.046875 C 24.929688 -14.734375 25.34375 -18.6875 25.34375 -23.90625 L 25.34375 -124.046875 C 25.34375 -129.265625 24.929688 -133.039062 24.109375 -135.375 C 23.285156 -137.71875 21.738281 -139.300781 19.46875 -140.125 C 17.207031 -140.945312 13.601562 -141.492188 8.65625 -141.765625 L 8.65625 -145.890625 C 13.1875 -145.484375 19.570312 -145.28125 27.8125 -145.28125 C 34 -145.28125 39.359375 -145.484375 43.890625 -145.890625 L 116.625 -33.796875 L 116.625 -121.984375 C 116.625 -127.347656 116.175781 -131.332031 115.28125 -133.9375 C 114.394531 -136.550781 112.644531 -138.441406 110.03125 -139.609375 C 107.425781 -140.773438 103.375 -141.492188 97.875 -141.765625 L 97.875 -145.890625 C 102.820312 -145.484375 109.828125 -145.28125 118.890625 -145.28125 C 127.140625 -145.28125 133.53125 -145.484375 138.0625 -145.890625 Z M 138.0625 -141.765625 "/></g></g></g><g fill="#000000" fill-opacity="1"><g transform="translate(82.702349, 318.675592)"><g><path d="M 2.125 -5.390625 L 0.03125 -5.390625 L 0.03125 -5.921875 L 4.828125 -5.921875 L 4.828125 -5.390625 L 2.75 -5.390625 L 2.75 0 L 2.125 0 Z M 2.125 -5.390625 "/></g></g></g><g fill="#000000" fill-opacity="1"><g transform="translate(91.30753, 318.675592)"><g><path d="M 5.15625 -0.546875 L 5.15625 0 L 0.96875 0 L 0.96875 -5.921875 L 5.03125 -5.921875 L 5.03125 -5.390625 L 1.59375 -5.390625 L 1.59375 -3.28125 L 4.65625 -3.28125 L 4.65625 -2.75 L 1.59375 -2.75 L 1.59375 -0.546875 Z M 5.15625 -0.546875 "/></g></g></g><g fill="#000000" fill-opacity="1"><g transform="translate(100.716546, 318.675592)"><g><path d="M 3.546875 0.046875 C 2.953125 0.046875 2.421875 -0.0820312 1.953125 -0.34375 C 1.484375 -0.601562 1.113281 -0.960938 0.84375 -1.421875 C 0.570312 -1.878906 0.4375 -2.394531 0.4375 -2.96875 C 0.4375 -3.53125 0.570312 -4.039062 0.84375 -4.5 C 1.113281 -4.96875 1.484375 -5.332031 1.953125 -5.59375 C 2.429688 -5.851562 2.960938 -5.984375 3.546875 -5.984375 C 3.984375 -5.984375 4.390625 -5.90625 4.765625 -5.75 C 5.140625 -5.601562 5.457031 -5.390625 5.71875 -5.109375 L 5.3125 -4.71875 C 4.851562 -5.1875 4.269531 -5.421875 3.5625 -5.421875 C 3.09375 -5.421875 2.664062 -5.3125 2.28125 -5.09375 C 1.894531 -4.882812 1.59375 -4.59375 1.375 -4.21875 C 1.164062 -3.84375 1.0625 -3.425781 1.0625 -2.96875 C 1.0625 -2.5 1.164062 -2.078125 1.375 -1.703125 C 1.59375 -1.335938 1.894531 -1.046875 2.28125 -0.828125 C 2.664062 -0.617188 3.09375 -0.515625 3.5625 -0.515625 C 4.269531 -0.515625 4.851562 -0.75 5.3125 -1.21875 L 5.71875 -0.828125 C 5.457031 -0.535156 5.140625 -0.316406 4.765625 -0.171875 C 4.390625 -0.0234375 3.984375 0.046875 3.546875 0.046875 Z M 3.546875 0.046875 "/></g></g></g><g fill="#000000" fill-opacity="1"><g transform="translate(110.54863, 318.675592)"><g><path d="M 5.921875 -5.921875 L 5.921875 0 L 5.40625 0 L 1.59375 -4.8125 L 1.59375 0 L 0.96875 0 L 0.96875 -5.921875 L 1.484375 -5.921875 L 5.296875 -1.125 L 5.296875 -5.921875 Z M 5.921875 -5.921875 "/></g></g></g><g fill="#000000" fill-opacity="1"><g transform="translate(121.176084, 318.675592)"><g><path d="M 3.5625 0.046875 C 2.96875 0.046875 2.429688 -0.0820312 1.953125 -0.34375 C 1.484375 -0.601562 1.113281 -0.960938 0.84375 -1.421875 C 0.570312 -1.878906 0.4375 -2.394531 0.4375 -2.96875 C 0.4375 -3.53125 0.570312 -4.039062 0.84375 -4.5 C 1.113281 -4.957031 1.484375 -5.316406 1.953125 -5.578125 C 2.429688 -5.847656 2.96875 -5.984375 3.5625 -5.984375 C 4.144531 -5.984375 4.671875 -5.851562 5.140625 -5.59375 C 5.617188 -5.332031 5.992188 -4.96875 6.265625 -4.5 C 6.535156 -4.039062 6.671875 -3.53125 6.671875 -2.96875 C 6.671875 -2.394531 6.535156 -1.878906 6.265625 -1.421875 C 5.992188 -0.960938 5.617188 -0.601562 5.140625 -0.34375 C 4.671875 -0.0820312 4.144531 0.046875 3.5625 0.046875 Z M 3.5625 -0.515625 C 4.03125 -0.515625 4.453125 -0.617188 4.828125 -0.828125 C 5.203125 -1.035156 5.492188 -1.328125 5.703125 -1.703125 C 5.921875 -2.078125 6.03125 -2.5 6.03125 -2.96875 C 6.03125 -3.425781 5.921875 -3.84375 5.703125 -4.21875 C 5.492188 -4.59375 5.203125 -4.882812 4.828125 -5.09375 C 4.453125 -5.3125 4.03125 -5.421875 3.5625 -5.421875 C 3.09375 -5.421875 2.664062 -5.3125 2.28125 -5.09375 C 1.894531 -4.882812 1.59375 -4.59375 1.375 -4.21875 C 1.164062 -3.84375 1.0625 -3.425781 1.0625 -2.96875 C 1.0625 -2.5 1.164062 -2.078125 1.375 -1.703125 C 1.59375 -1.328125 1.894531 -1.035156 2.28125 -0.828125 C 2.664062 -0.617188 3.09375 -0.515625 3.5625 -0.515625 Z M 3.5625 -0.515625 "/></g></g></g><g fill="#000000" fill-opacity="1"><g transform="translate(132.02353, 318.675592)"><g><path d="M 0.96875 -5.921875 L 1.59375 -5.921875 L 1.59375 -0.546875 L 4.90625 -0.546875 L 4.90625 0 L 0.96875 0 Z M 0.96875 -5.921875 "/></g></g></g><g fill="#000000" fill-opacity="1"><g transform="translate(140.755638, 318.675592)"><g><path d="M 3.5625 0.046875 C 2.96875 0.046875 2.429688 -0.0820312 1.953125 -0.34375 C 1.484375 -0.601562 1.113281 -0.960938 0.84375 -1.421875 C 0.570312 -1.878906 0.4375 -2.394531 0.4375 -2.96875 C 0.4375 -3.53125 0.570312 -4.039062 0.84375 -4.5 C 1.113281 -4.957031 1.484375 -5.316406 1.953125 -5.578125 C 2.429688 -5.847656 2.96875 -5.984375 3.5625 -5.984375 C 4.144531 -5.984375 4.671875 -5.851562 5.140625 -5.59375 C 5.617188 -5.332031 5.992188 -4.96875 6.265625 -4.5 C 6.535156 -4.039062 6.671875 -3.53125 6.671875 -2.96875 C 6.671875 -2.394531 6.535156 -1.878906 6.265625 -1.421875 C 5.992188 -0.960938 5.617188 -0.601562 5.140625 -0.34375 C 4.671875 -0.0820312 4.144531 0.046875 3.5625 0.046875 Z M 3.5625 -0.515625 C 4.03125 -0.515625 4.453125 -0.617188 4.828125 -0.828125 C 5.203125 -1.035156 5.492188 -1.328125 5.703125 -1.703125 C 5.921875 -2.078125 6.03125 -2.5 6.03125 -2.96875 C 6.03125 -3.425781 5.921875 -3.84375 5.703125 -4.21875 C 5.492188 -4.59375 5.203125 -4.882812 4.828125 -5.09375 C 4.453125 -5.3125 4.03125 -5.421875 3.5625 -5.421875 C 3.09375 -5.421875 2.664062 -5.3125 2.28125 -5.09375 C 1.894531 -4.882812 1.59375 -4.59375 1.375 -4.21875 C 1.164062 -3.84375 1.0625 -3.425781 1.0625 -2.96875 C 1.0625 -2.5 1.164062 -2.078125 1.375 -1.703125 C 1.59375 -1.328125 1.894531 -1.035156 2.28125 -0.828125 C 2.664062 -0.617188 3.09375 -0.515625 3.5625 -0.515625 Z M 3.5625 -0.515625 "/></g></g></g><g fill="#000000" fill-opacity="1"><g transform="translate(151.603084, 318.675592)"><g><path d="M 5.140625 -2.96875 L 5.734375 -2.96875 L 5.734375 -0.703125 C 5.460938 -0.460938 5.132812 -0.273438 4.75 -0.140625 C 4.375 -0.015625 3.976562 0.046875 3.5625 0.046875 C 2.96875 0.046875 2.429688 -0.0820312 1.953125 -0.34375 C 1.484375 -0.601562 1.113281 -0.960938 0.84375 -1.421875 C 0.570312 -1.878906 0.4375 -2.394531 0.4375 -2.96875 C 0.4375 -3.53125 0.570312 -4.039062 0.84375 -4.5 C 1.113281 -4.96875 1.484375 -5.332031 1.953125 -5.59375 C 2.429688 -5.851562 2.972656 -5.984375 3.578125 -5.984375 C 4.023438 -5.984375 4.4375 -5.910156 4.8125 -5.765625 C 5.195312 -5.617188 5.519531 -5.40625 5.78125 -5.125 L 5.390625 -4.71875 C 4.921875 -5.1875 4.320312 -5.421875 3.59375 -5.421875 C 3.113281 -5.421875 2.679688 -5.3125 2.296875 -5.09375 C 1.910156 -4.882812 1.609375 -4.59375 1.390625 -4.21875 C 1.171875 -3.84375 1.0625 -3.425781 1.0625 -2.96875 C 1.0625 -2.5 1.171875 -2.078125 1.390625 -1.703125 C 1.609375 -1.335938 1.910156 -1.046875 2.296875 -0.828125 C 2.679688 -0.617188 3.113281 -0.515625 3.59375 -0.515625 C 4.195312 -0.515625 4.710938 -0.664062 5.140625 -0.96875 Z M 5.140625 -2.96875 "/></g></g></g><g fill="#000000" fill-opacity="1"><g transform="translate(161.892077, 318.675592)"><g><path d="M 0.96875 -5.921875 L 1.59375 -5.921875 L 1.59375 0 L 0.96875 0 Z M 1.875 -7.46875 L 2.6875 -7.46875 L 1.3125 -6.40625 L 0.71875 -6.40625 Z M 1.875 -7.46875 "/></g></g></g><g fill="#000000" fill-opacity="1"><g transform="translate(168.195769, 318.675592)"><g><path d="M 4.6875 -1.578125 L 1.375 -1.578125 L 0.671875 0 L 0.015625 0 L 2.734375 -5.921875 L 3.34375 -5.921875 L 6.0625 0 L 5.390625 0 Z M 4.453125 -2.09375 L 3.03125 -5.28125 L 1.609375 -2.09375 Z M 4.453125 -2.09375 "/></g></g></g><g fill="#000000" fill-opacity="1"><g transform="translate(178.010926, 318.675592)"><g/></g></g><g fill="#000000" fill-opacity="1"><g transform="translate(183.976163, 318.675592)"><g><path d="M 5.15625 -0.546875 L 5.15625 0 L 0.96875 0 L 0.96875 -5.921875 L 5.03125 -5.921875 L 5.03125 -5.390625 L 1.59375 -5.390625 L 1.59375 -3.28125 L 4.65625 -3.28125 L 4.65625 -2.75 L 1.59375 -2.75 L 1.59375 -0.546875 Z M 5.15625 -0.546875 "/></g></g></g><g fill="#000000" fill-opacity="1"><g transform="translate(193.385175, 318.675592)"><g><path d="M 5.921875 -5.921875 L 5.921875 0 L 5.40625 0 L 1.59375 -4.8125 L 1.59375 0 L 0.96875 0 L 0.96875 -5.921875 L 1.484375 -5.921875 L 5.296875 -1.125 L 5.296875 -5.921875 Z M 5.921875 -5.921875 "/></g></g></g><g fill="#000000" fill-opacity="1"><g transform="translate(204.012624, 318.675592)"><g/></g></g><g fill="#000000" fill-opacity="1"><g transform="translate(209.97786, 318.675592)"><g><path d="M 2.125 -5.390625 L 0.03125 -5.390625 L 0.03125 -5.921875 L 4.828125 -5.921875 L 4.828125 -5.390625 L 2.75 -5.390625 L 2.75 0 L 2.125 0 Z M 2.125 -5.390625 "/></g></g></g><g fill="#000000" fill-opacity="1"><g transform="translate(218.583038, 318.675592)"><g><path d="M 3.359375 0.046875 C 2.585938 0.046875 1.988281 -0.171875 1.5625 -0.609375 C 1.132812 -1.046875 0.921875 -1.6875 0.921875 -2.53125 L 0.921875 -5.921875 L 1.546875 -5.921875 L 1.546875 -2.5625 C 1.546875 -1.875 1.695312 -1.359375 2 -1.015625 C 2.3125 -0.679688 2.765625 -0.515625 3.359375 -0.515625 C 3.953125 -0.515625 4.398438 -0.679688 4.703125 -1.015625 C 5.015625 -1.359375 5.171875 -1.875 5.171875 -2.5625 L 5.171875 -5.921875 L 5.78125 -5.921875 L 5.78125 -2.53125 C 5.78125 -1.6875 5.566406 -1.046875 5.140625 -0.609375 C 4.710938 -0.171875 4.117188 0.046875 3.359375 0.046875 Z M 3.359375 0.046875 "/></g></g></g><g fill="#000000" fill-opacity="1"><g transform="translate(229.0328, 318.675592)"><g><path d="M 2.59375 0.046875 C 2.15625 0.046875 1.734375 -0.0195312 1.328125 -0.15625 C 0.929688 -0.300781 0.617188 -0.488281 0.390625 -0.71875 L 0.640625 -1.203125 C 0.859375 -0.984375 1.144531 -0.804688 1.5 -0.671875 C 1.851562 -0.546875 2.21875 -0.484375 2.59375 -0.484375 C 3.125 -0.484375 3.519531 -0.578125 3.78125 -0.765625 C 4.050781 -0.960938 4.1875 -1.21875 4.1875 -1.53125 C 4.1875 -1.769531 4.113281 -1.957031 3.96875 -2.09375 C 3.832031 -2.238281 3.660156 -2.347656 3.453125 -2.421875 C 3.242188 -2.503906 2.953125 -2.585938 2.578125 -2.671875 C 2.128906 -2.785156 1.769531 -2.894531 1.5 -3 C 1.238281 -3.101562 1.015625 -3.257812 0.828125 -3.46875 C 0.640625 -3.6875 0.546875 -3.984375 0.546875 -4.359375 C 0.546875 -4.648438 0.625 -4.914062 0.78125 -5.15625 C 0.9375 -5.40625 1.175781 -5.601562 1.5 -5.75 C 1.832031 -5.90625 2.242188 -5.984375 2.734375 -5.984375 C 3.066406 -5.984375 3.394531 -5.9375 3.71875 -5.84375 C 4.039062 -5.75 4.320312 -5.617188 4.5625 -5.453125 L 4.359375 -4.953125 C 4.109375 -5.117188 3.84375 -5.242188 3.5625 -5.328125 C 3.28125 -5.410156 3.003906 -5.453125 2.734375 -5.453125 C 2.210938 -5.453125 1.816406 -5.347656 1.546875 -5.140625 C 1.285156 -4.941406 1.15625 -4.6875 1.15625 -4.375 C 1.15625 -4.132812 1.226562 -3.941406 1.375 -3.796875 C 1.519531 -3.648438 1.703125 -3.539062 1.921875 -3.46875 C 2.140625 -3.394531 2.429688 -3.3125 2.796875 -3.21875 C 3.234375 -3.113281 3.582031 -3.007812 3.84375 -2.90625 C 4.113281 -2.800781 4.34375 -2.640625 4.53125 -2.421875 C 4.71875 -2.210938 4.8125 -1.925781 4.8125 -1.5625 C 4.8125 -1.269531 4.726562 -1 4.5625 -0.75 C 4.40625 -0.5 4.160156 -0.300781 3.828125 -0.15625 C 3.492188 -0.0195312 3.082031 0.046875 2.59375 0.046875 Z M 2.59375 0.046875 "/></g></g></g><g fill="#000000" fill-opacity="1"><g transform="translate(237.984894, 318.675592)"><g/></g></g><g fill="#000000" fill-opacity="1"><g transform="translate(243.950131, 318.675592)"><g><path d="M 7.125 -5.921875 L 7.125 0 L 6.515625 0 L 6.515625 -4.75 L 4.1875 -0.75 L 3.890625 -0.75 L 1.5625 -4.71875 L 1.5625 0 L 0.96875 0 L 0.96875 -5.921875 L 1.484375 -5.921875 L 4.0625 -1.53125 L 6.609375 -5.921875 Z M 7.125 -5.921875 "/></g></g></g><g fill="#000000" fill-opacity="1"><g transform="translate(255.779092, 318.675592)"><g><path d="M 4.6875 -1.578125 L 1.375 -1.578125 L 0.671875 0 L 0.015625 0 L 2.734375 -5.921875 L 3.34375 -5.921875 L 6.0625 0 L 5.390625 0 Z M 4.453125 -2.09375 L 3.03125 -5.28125 L 1.609375 -2.09375 Z M 4.453125 -2.09375 "/></g></g></g><g fill="#000000" fill-opacity="1"><g transform="translate(265.594249, 318.675592)"><g><path d="M 5.921875 -5.921875 L 5.921875 0 L 5.40625 0 L 1.59375 -4.8125 L 1.59375 0 L 0.96875 0 L 0.96875 -5.921875 L 1.484375 -5.921875 L 5.296875 -1.125 L 5.296875 -5.921875 Z M 5.921875 -5.921875 "/></g></g></g><g fill="#000000" fill-opacity="1"><g transform="translate(276.221709, 318.675592)"><g><path d="M 3.5625 0.046875 C 2.96875 0.046875 2.429688 -0.0820312 1.953125 -0.34375 C 1.484375 -0.601562 1.113281 -0.960938 0.84375 -1.421875 C 0.570312 -1.878906 0.4375 -2.394531 0.4375 -2.96875 C 0.4375 -3.53125 0.570312 -4.039062 0.84375 -4.5 C 1.113281 -4.957031 1.484375 -5.316406 1.953125 -5.578125 C 2.429688 -5.847656 2.96875 -5.984375 3.5625 -5.984375 C 4.144531 -5.984375 4.671875 -5.851562 5.140625 -5.59375 C 5.617188 -5.332031 5.992188 -4.96875 6.265625 -4.5 C 6.535156 -4.039062 6.671875 -3.53125 6.671875 -2.96875 C 6.671875 -2.394531 6.535156 -1.878906 6.265625 -1.421875 C 5.992188 -0.960938 5.617188 -0.601562 5.140625 -0.34375 C 4.671875 -0.0820312 4.144531 0.046875 3.5625 0.046875 Z M 3.5625 -0.515625 C 4.03125 -0.515625 4.453125 -0.617188 4.828125 -0.828125 C 5.203125 -1.035156 5.492188 -1.328125 5.703125 -1.703125 C 5.921875 -2.078125 6.03125 -2.5 6.03125 -2.96875 C 6.03125 -3.425781 5.921875 -3.84375 5.703125 -4.21875 C 5.492188 -4.59375 5.203125 -4.882812 4.828125 -5.09375 C 4.453125 -5.3125 4.03125 -5.421875 3.5625 -5.421875 C 3.09375 -5.421875 2.664062 -5.3125 2.28125 -5.09375 C 1.894531 -4.882812 1.59375 -4.59375 1.375 -4.21875 C 1.164062 -3.84375 1.0625 -3.425781 1.0625 -2.96875 C 1.0625 -2.5 1.164062 -2.078125 1.375 -1.703125 C 1.59375 -1.328125 1.894531 -1.035156 2.28125 -0.828125 C 2.664062 -0.617188 3.09375 -0.515625 3.5625 -0.515625 Z M 3.5625 -0.515625 "/></g></g></g><g fill="#000000" fill-opacity="1"><g transform="translate(287.069149, 318.675592)"><g><path d="M 2.59375 0.046875 C 2.15625 0.046875 1.734375 -0.0195312 1.328125 -0.15625 C 0.929688 -0.300781 0.617188 -0.488281 0.390625 -0.71875 L 0.640625 -1.203125 C 0.859375 -0.984375 1.144531 -0.804688 1.5 -0.671875 C 1.851562 -0.546875 2.21875 -0.484375 2.59375 -0.484375 C 3.125 -0.484375 3.519531 -0.578125 3.78125 -0.765625 C 4.050781 -0.960938 4.1875 -1.21875 4.1875 -1.53125 C 4.1875 -1.769531 4.113281 -1.957031 3.96875 -2.09375 C 3.832031 -2.238281 3.660156 -2.347656 3.453125 -2.421875 C 3.242188 -2.503906 2.953125 -2.585938 2.578125 -2.671875 C 2.128906 -2.785156 1.769531 -2.894531 1.5 -3 C 1.238281 -3.101562 1.015625 -3.257812 0.828125 -3.46875 C 0.640625 -3.6875 0.546875 -3.984375 0.546875 -4.359375 C 0.546875 -4.648438 0.625 -4.914062 0.78125 -5.15625 C 0.9375 -5.40625 1.175781 -5.601562 1.5 -5.75 C 1.832031 -5.90625 2.242188 -5.984375 2.734375 -5.984375 C 3.066406 -5.984375 3.394531 -5.9375 3.71875 -5.84375 C 4.039062 -5.75 4.320312 -5.617188 4.5625 -5.453125 L 4.359375 -4.953125 C 4.109375 -5.117188 3.84375 -5.242188 3.5625 -5.328125 C 3.28125 -5.410156 3.003906 -5.453125 2.734375 -5.453125 C 2.210938 -5.453125 1.816406 -5.347656 1.546875 -5.140625 C 1.285156 -4.941406 1.15625 -4.6875 1.15625 -4.375 C 1.15625 -4.132812 1.226562 -3.941406 1.375 -3.796875 C 1.519531 -3.648438 1.703125 -3.539062 1.921875 -3.46875 C 2.140625 -3.394531 2.429688 -3.3125 2.796875 -3.21875 C 3.234375 -3.113281 3.582031 -3.007812 3.84375 -2.90625 C 4.113281 -2.800781 4.34375 -2.640625 4.53125 -2.421875 C 4.71875 -2.210938 4.8125 -1.925781 4.8125 -1.5625 C 4.8125 -1.269531 4.726562 -1 4.5625 -0.75 C 4.40625 -0.5 4.160156 -0.300781 3.828125 -0.15625 C 3.492188 -0.0195312 3.082031 0.046875 2.59375 0.046875 Z M 2.59375 0.046875 "/></g></g></g><g fill="#000000" fill-opacity="1"><g transform="translate(116.068319, 298.7875)"><g><path d="M 15.71875 -18.796875 C 15.59375 -17.535156 15.53125 -16.398438 15.53125 -15.390625 C 15.53125 -14.503906 15.554688 -13.78125 15.609375 -13.21875 L 15 -13.21875 C 14.851562 -14.582031 14.675781 -15.59375 14.46875 -16.25 C 14.257812 -16.914062 13.890625 -17.40625 13.359375 -17.71875 C 12.828125 -18.03125 12.007812 -18.1875 10.90625 -18.1875 L 9.484375 -18.1875 L 9.484375 -3.078125 C 9.484375 -2.335938 9.550781 -1.796875 9.6875 -1.453125 C 9.832031 -1.117188 10.082031 -0.890625 10.4375 -0.765625 C 10.789062 -0.640625 11.363281 -0.5625 12.15625 -0.53125 L 12.15625 0 C 11.238281 -0.0507812 9.9375 -0.078125 8.25 -0.078125 C 6.476562 -0.078125 5.171875 -0.0507812 4.328125 0 L 4.328125 -0.53125 C 5.117188 -0.5625 5.691406 -0.640625 6.046875 -0.765625 C 6.398438 -0.890625 6.648438 -1.117188 6.796875 -1.453125 C 6.941406 -1.796875 7.015625 -2.335938 7.015625 -3.078125 L 7.015625 -18.1875 L 5.578125 -18.1875 C 4.472656 -18.1875 3.65625 -18.03125 3.125 -17.71875 C 2.601562 -17.40625 2.234375 -16.914062 2.015625 -16.25 C 1.804688 -15.59375 1.628906 -14.582031 1.484375 -13.21875 L 0.875 -13.21875 C 0.925781 -13.78125 0.953125 -14.503906 0.953125 -15.390625 C 0.953125 -16.398438 0.890625 -17.535156 0.765625 -18.796875 C 2.234375 -18.742188 4.726562 -18.71875 8.25 -18.71875 C 11.757812 -18.71875 14.25 -18.742188 15.71875 -18.796875 Z M 15.71875 -18.796875 "/></g></g></g><g fill="#000000" fill-opacity="1"><g transform="translate(132.551495, 298.7875)"><g><path d="M 14.703125 -3.390625 C 14.703125 -2.390625 14.765625 -1.257812 14.890625 0 C 13.691406 -0.0507812 11.664062 -0.078125 8.8125 -0.078125 C 5.414062 -0.078125 2.847656 -0.0507812 1.109375 0 L 1.109375 -0.53125 C 1.753906 -0.5625 2.222656 -0.628906 2.515625 -0.734375 C 2.804688 -0.847656 3.003906 -1.054688 3.109375 -1.359375 C 3.210938 -1.660156 3.265625 -2.144531 3.265625 -2.8125 L 3.265625 -15.984375 C 3.265625 -16.648438 3.210938 -17.132812 3.109375 -17.4375 C 3.003906 -17.738281 2.804688 -17.941406 2.515625 -18.046875 C 2.222656 -18.160156 1.753906 -18.234375 1.109375 -18.265625 L 1.109375 -18.796875 C 2.847656 -18.742188 5.414062 -18.71875 8.8125 -18.71875 C 11.414062 -18.71875 13.265625 -18.742188 14.359375 -18.796875 C 14.234375 -17.628906 14.171875 -16.582031 14.171875 -15.65625 C 14.171875 -14.96875 14.195312 -14.421875 14.25 -14.015625 L 13.640625 -14.015625 C 13.515625 -15.171875 13.351562 -16.023438 13.15625 -16.578125 C 12.96875 -17.140625 12.644531 -17.546875 12.1875 -17.796875 C 11.726562 -18.054688 11.03125 -18.1875 10.09375 -18.1875 L 7.890625 -18.1875 C 7.242188 -18.1875 6.773438 -18.132812 6.484375 -18.03125 C 6.191406 -17.9375 5.992188 -17.738281 5.890625 -17.4375 C 5.785156 -17.132812 5.734375 -16.648438 5.734375 -15.984375 L 5.734375 -9.71875 L 7.484375 -9.71875 C 8.109375 -9.71875 8.585938 -9.863281 8.921875 -10.15625 C 9.253906 -10.445312 9.476562 -10.789062 9.59375 -11.1875 C 9.707031 -11.582031 9.800781 -12.082031 9.875 -12.6875 L 9.953125 -13.21875 L 10.5625 -13.21875 C 10.507812 -12.476562 10.484375 -11.644531 10.484375 -10.71875 L 10.484375 -9.453125 C 10.484375 -8.546875 10.535156 -7.289062 10.640625 -5.6875 L 10.03125 -5.6875 C 10.019531 -5.800781 9.96875 -6.222656 9.875 -6.953125 C 9.789062 -7.691406 9.546875 -8.25 9.140625 -8.625 C 8.742188 -9 8.191406 -9.1875 7.484375 -9.1875 L 5.734375 -9.1875 L 5.734375 -2.8125 C 5.734375 -2.144531 5.785156 -1.660156 5.890625 -1.359375 C 5.992188 -1.054688 6.191406 -0.851562 6.484375 -0.75 C 6.773438 -0.65625 7.242188 -0.609375 7.890625 -0.609375 L 9.828125 -0.609375 C 10.921875 -0.609375 11.753906 -0.753906 12.328125 -1.046875 C 12.898438 -1.335938 13.316406 -1.804688 13.578125 -2.453125 C 13.847656 -3.097656 14.046875 -4.050781 14.171875 -5.3125 L 14.78125 -5.3125 C 14.726562 -4.832031 14.703125 -4.191406 14.703125 -3.390625 Z M 14.703125 -3.390625 "/></g></g></g><g fill="#000000" fill-opacity="1"><g transform="translate(148.716159, 298.7875)"><g><path d="M 9.84375 -19.171875 C 10.90625 -19.171875 11.804688 -19.019531 12.546875 -18.71875 C 13.296875 -18.414062 14.023438 -17.988281 14.734375 -17.4375 C 14.929688 -17.28125 15.097656 -17.203125 15.234375 -17.203125 C 15.585938 -17.203125 15.816406 -17.734375 15.921875 -18.796875 L 16.53125 -18.796875 C 16.46875 -17.640625 16.4375 -15.601562 16.4375 -12.6875 L 15.828125 -12.6875 C 15.628906 -13.84375 15.445312 -14.671875 15.28125 -15.171875 C 15.125 -15.671875 14.863281 -16.15625 14.5 -16.625 C 13.96875 -17.3125 13.289062 -17.828125 12.46875 -18.171875 C 11.644531 -18.515625 10.753906 -18.6875 9.796875 -18.6875 C 8.640625 -18.6875 7.632812 -18.304688 6.78125 -17.546875 C 5.925781 -16.785156 5.257812 -15.703125 4.78125 -14.296875 C 4.300781 -12.890625 4.0625 -11.238281 4.0625 -9.34375 C 4.0625 -7.414062 4.316406 -5.757812 4.828125 -4.375 C 5.335938 -3 6.046875 -1.953125 6.953125 -1.234375 C 7.867188 -0.515625 8.90625 -0.15625 10.0625 -0.15625 C 10.945312 -0.15625 11.804688 -0.320312 12.640625 -0.65625 C 13.472656 -1 14.125 -1.503906 14.59375 -2.171875 C 14.945312 -2.671875 15.203125 -3.203125 15.359375 -3.765625 C 15.523438 -4.335938 15.679688 -5.207031 15.828125 -6.375 L 16.4375 -6.375 C 16.4375 -3.332031 16.46875 -1.207031 16.53125 0 L 15.921875 0 C 15.867188 -0.5625 15.796875 -0.960938 15.703125 -1.203125 C 15.609375 -1.441406 15.472656 -1.5625 15.296875 -1.5625 C 15.148438 -1.5625 14.960938 -1.492188 14.734375 -1.359375 C 13.929688 -0.785156 13.164062 -0.351562 12.4375 -0.0625 C 11.71875 0.226562 10.847656 0.375 9.828125 0.375 C 8.140625 0.375 6.660156 -0.00390625 5.390625 -0.765625 C 4.128906 -1.523438 3.148438 -2.625 2.453125 -4.0625 C 1.753906 -5.507812 1.40625 -7.234375 1.40625 -9.234375 C 1.40625 -11.179688 1.765625 -12.90625 2.484375 -14.40625 C 3.203125 -15.914062 4.203125 -17.085938 5.484375 -17.921875 C 6.765625 -18.753906 8.21875 -19.171875 9.84375 -19.171875 Z M 9.84375 -19.171875 "/></g></g></g><g fill="#000000" fill-opacity="1"><g transform="translate(166.977713, 298.7875)"><g><path d="M 18.984375 -18.265625 C 18.347656 -18.234375 17.882812 -18.160156 17.59375 -18.046875 C 17.300781 -17.941406 17.097656 -17.738281 16.984375 -17.4375 C 16.878906 -17.132812 16.828125 -16.648438 16.828125 -15.984375 L 16.828125 -2.8125 C 16.828125 -2.144531 16.878906 -1.660156 16.984375 -1.359375 C 17.097656 -1.054688 17.300781 -0.847656 17.59375 -0.734375 C 17.882812 -0.628906 18.347656 -0.5625 18.984375 -0.53125 L 18.984375 0 C 18.234375 -0.0507812 17.097656 -0.078125 15.578125 -0.078125 C 14.148438 -0.078125 13.03125 -0.0507812 12.21875 0 L 12.21875 -0.53125 C 12.851562 -0.5625 13.316406 -0.628906 13.609375 -0.734375 C 13.898438 -0.847656 14.097656 -1.054688 14.203125 -1.359375 C 14.304688 -1.660156 14.359375 -2.144531 14.359375 -2.8125 L 14.359375 -9.1875 L 5.734375 -9.1875 L 5.734375 -2.8125 C 5.734375 -2.144531 5.785156 -1.660156 5.890625 -1.359375 C 5.992188 -1.054688 6.191406 -0.847656 6.484375 -0.734375 C 6.773438 -0.628906 7.242188 -0.5625 7.890625 -0.53125 L 7.890625 0 C 7.066406 -0.0507812 5.941406 -0.078125 4.515625 -0.078125 C 2.992188 -0.078125 1.859375 -0.0507812 1.109375 0 L 1.109375 -0.53125 C 1.753906 -0.5625 2.222656 -0.628906 2.515625 -0.734375 C 2.804688 -0.847656 3.003906 -1.054688 3.109375 -1.359375 C 3.210938 -1.660156 3.265625 -2.144531 3.265625 -2.8125 L 3.265625 -15.984375 C 3.265625 -16.648438 3.210938 -17.132812 3.109375 -17.4375 C 3.003906 -17.738281 2.804688 -17.941406 2.515625 -18.046875 C 2.222656 -18.160156 1.753906 -18.234375 1.109375 -18.265625 L 1.109375 -18.796875 C 1.859375 -18.742188 2.992188 -18.71875 4.515625 -18.71875 C 5.929688 -18.71875 7.054688 -18.742188 7.890625 -18.796875 L 7.890625 -18.265625 C 7.242188 -18.234375 6.773438 -18.160156 6.484375 -18.046875 C 6.191406 -17.941406 5.992188 -17.738281 5.890625 -17.4375 C 5.785156 -17.132812 5.734375 -16.648438 5.734375 -15.984375 L 5.734375 -9.71875 L 14.359375 -9.71875 L 14.359375 -15.984375 C 14.359375 -16.648438 14.304688 -17.132812 14.203125 -17.4375 C 14.097656 -17.738281 13.898438 -17.941406 13.609375 -18.046875 C 13.316406 -18.160156 12.851562 -18.234375 12.21875 -18.265625 L 12.21875 -18.796875 C 13.03125 -18.742188 14.148438 -18.71875 15.578125 -18.71875 C 17.097656 -18.71875 18.234375 -18.742188 18.984375 -18.796875 Z M 18.984375 -18.265625 "/></g></g></g><g fill="#000000" fill-opacity="1"><g transform="translate(187.070733, 298.7875)"><g><path d="M 17.78125 -18.265625 C 17.164062 -18.234375 16.707031 -18.140625 16.40625 -17.984375 C 16.101562 -17.835938 15.898438 -17.585938 15.796875 -17.234375 C 15.691406 -16.890625 15.640625 -16.382812 15.640625 -15.71875 L 15.640625 0.125 L 15.03125 0.125 L 3.875 -17.09375 L 3.875 -3.078125 C 3.875 -2.390625 3.929688 -1.875 4.046875 -1.53125 C 4.160156 -1.195312 4.382812 -0.953125 4.71875 -0.796875 C 5.0625 -0.648438 5.585938 -0.5625 6.296875 -0.53125 L 6.296875 0 C 5.660156 -0.0507812 4.753906 -0.078125 3.578125 -0.078125 C 2.515625 -0.078125 1.691406 -0.0507812 1.109375 0 L 1.109375 -0.53125 C 1.734375 -0.5625 2.195312 -0.648438 2.5 -0.796875 C 2.800781 -0.953125 3.003906 -1.203125 3.109375 -1.546875 C 3.210938 -1.898438 3.265625 -2.410156 3.265625 -3.078125 L 3.265625 -15.984375 C 3.265625 -16.648438 3.210938 -17.132812 3.109375 -17.4375 C 3.003906 -17.738281 2.804688 -17.941406 2.515625 -18.046875 C 2.222656 -18.160156 1.753906 -18.234375 1.109375 -18.265625 L 1.109375 -18.796875 C 1.691406 -18.742188 2.515625 -18.71875 3.578125 -18.71875 C 4.378906 -18.71875 5.070312 -18.742188 5.65625 -18.796875 L 15.03125 -4.359375 L 15.03125 -15.71875 C 15.03125 -16.40625 14.972656 -16.914062 14.859375 -17.25 C 14.742188 -17.59375 14.515625 -17.835938 14.171875 -17.984375 C 13.835938 -18.140625 13.316406 -18.234375 12.609375 -18.265625 L 12.609375 -18.796875 C 13.242188 -18.742188 14.144531 -18.71875 15.3125 -18.71875 C 16.375 -18.71875 17.195312 -18.742188 17.78125 -18.796875 Z M 17.78125 -18.265625 "/></g></g></g><g fill="#000000" fill-opacity="1"><g transform="translate(205.810066, 298.7875)"><g><path d="M 9.84375 -19.171875 C 11.53125 -19.171875 13.003906 -18.789062 14.265625 -18.03125 C 15.535156 -17.269531 16.519531 -16.164062 17.21875 -14.71875 C 17.914062 -13.28125 18.265625 -11.5625 18.265625 -9.5625 C 18.265625 -7.613281 17.90625 -5.882812 17.1875 -4.375 C 16.46875 -2.875 15.46875 -1.707031 14.1875 -0.875 C 12.90625 -0.0390625 11.453125 0.375 9.828125 0.375 C 8.140625 0.375 6.660156 -0.00390625 5.390625 -0.765625 C 4.128906 -1.523438 3.148438 -2.625 2.453125 -4.0625 C 1.753906 -5.507812 1.40625 -7.234375 1.40625 -9.234375 C 1.40625 -11.179688 1.765625 -12.90625 2.484375 -14.40625 C 3.203125 -15.914062 4.203125 -17.085938 5.484375 -17.921875 C 6.765625 -18.753906 8.21875 -19.171875 9.84375 -19.171875 Z M 9.75 -18.6875 C 8.613281 -18.6875 7.613281 -18.289062 6.75 -17.5 C 5.894531 -16.71875 5.234375 -15.617188 4.765625 -14.203125 C 4.296875 -12.785156 4.0625 -11.164062 4.0625 -9.34375 C 4.0625 -7.5 4.320312 -5.878906 4.84375 -4.484375 C 5.363281 -3.085938 6.066406 -2.007812 6.953125 -1.25 C 7.835938 -0.488281 8.828125 -0.109375 9.921875 -0.109375 C 11.054688 -0.109375 12.050781 -0.5 12.90625 -1.28125 C 13.769531 -2.070312 14.4375 -3.175781 14.90625 -4.59375 C 15.375 -6.007812 15.609375 -7.628906 15.609375 -9.453125 C 15.609375 -11.296875 15.347656 -12.914062 14.828125 -14.3125 C 14.304688 -15.707031 13.601562 -16.785156 12.71875 -17.546875 C 11.832031 -18.304688 10.84375 -18.6875 9.75 -18.6875 Z M 9.75 -18.6875 "/></g></g></g><g fill="#000000" fill-opacity="1"><g transform="translate(225.478396, 298.7875)"><g><path d="M 14.921875 -18.71875 C 15.710938 -18.71875 16.375 -18.742188 16.90625 -18.796875 L 16.90625 -18.265625 C 16.019531 -18.054688 15.320312 -17.285156 14.8125 -15.953125 L 8.578125 0.125 L 8.15625 0.125 L 1.671875 -16.5625 C 1.242188 -17.664062 0.632812 -18.234375 -0.15625 -18.265625 L -0.15625 -18.796875 C 0.550781 -18.742188 1.5 -18.71875 2.6875 -18.71875 C 4.207031 -18.71875 5.335938 -18.742188 6.078125 -18.796875 L 6.078125 -18.265625 C 5.410156 -18.234375 4.925781 -18.148438 4.625 -18.015625 C 4.332031 -17.878906 4.1875 -17.632812 4.1875 -17.28125 C 4.1875 -16.976562 4.296875 -16.5625 4.515625 -16.03125 L 9.3125 -3.265625 L 13.640625 -14.5 C 13.992188 -15.445312 14.171875 -16.171875 14.171875 -16.671875 C 14.171875 -17.222656 13.976562 -17.617188 13.59375 -17.859375 C 13.21875 -18.109375 12.640625 -18.242188 11.859375 -18.265625 L 11.859375 -18.796875 C 12.867188 -18.742188 13.890625 -18.71875 14.921875 -18.71875 Z M 14.921875 -18.71875 "/></g></g></g><g fill="#000000" fill-opacity="1"><g transform="translate(242.200456, 298.7875)"><g><path d="M 15.046875 -2.234375 C 15.472656 -1.128906 16.085938 -0.5625 16.890625 -0.53125 L 16.890625 0 C 16.179688 -0.0507812 15.234375 -0.078125 14.046875 -0.078125 C 12.523438 -0.078125 11.390625 -0.0507812 10.640625 0 L 10.640625 -0.53125 C 11.316406 -0.5625 11.800781 -0.644531 12.09375 -0.78125 C 12.382812 -0.914062 12.53125 -1.160156 12.53125 -1.515625 C 12.53125 -1.816406 12.425781 -2.234375 12.21875 -2.765625 L 10.59375 -7.109375 L 4.171875 -7.109375 L 3.078125 -4.296875 C 2.722656 -3.335938 2.546875 -2.613281 2.546875 -2.125 C 2.546875 -1.570312 2.734375 -1.171875 3.109375 -0.921875 C 3.492188 -0.679688 4.078125 -0.550781 4.859375 -0.53125 L 4.859375 0 C 3.847656 -0.0507812 2.832031 -0.078125 1.8125 -0.078125 C 1.007812 -0.078125 0.34375 -0.0507812 -0.1875 0 L -0.1875 -0.53125 C 0.695312 -0.738281 1.394531 -1.507812 1.90625 -2.84375 L 8.15625 -18.921875 L 8.578125 -18.921875 Z M 10.375 -7.640625 L 7.40625 -15.578125 L 4.375 -7.640625 Z M 10.375 -7.640625 "/></g></g></g></svg>